<svg xmlns="http://www.w3.org/2000/svg" width="14" height="12" viewBox="0 0 14 12" fill="none">
<path fill-rule="evenodd" clip-rule="evenodd" d="M0.622884 7.93375C0.831164 7.72547 1.16885 7.72547 1.37713 7.93375L3.64088 10.1975L5.90462 7.93375C6.1129 7.72547 6.45059 7.72547 6.65887 7.93375C6.86715 8.14203 6.86715 8.47972 6.65887 8.688L4.018 11.3289C3.80972 11.5371 3.47203 11.5371 3.26375 11.3289L0.622884 8.688C0.414605 8.47972 0.414605 8.14203 0.622884 7.93375Z" fill="#4D4D4D"/>
<path fill-rule="evenodd" clip-rule="evenodd" d="M3.64083 0.515153C3.93538 0.515153 4.17416 0.753934 4.17416 1.04849L4.17416 10.9517C4.17416 11.2463 3.93538 11.4851 3.64083 11.4851C3.34628 11.4851 3.1075 11.2463 3.1075 10.9517L3.1075 1.04849C3.1075 0.753934 3.34628 0.515153 3.64083 0.515153Z" fill="#4D4D4D"/>
<path fill-rule="evenodd" clip-rule="evenodd" d="M13.3771 4.06646C13.1688 4.27474 12.8311 4.27474 12.6229 4.06646L10.3591 1.80272L8.09538 4.06646C7.8871 4.27474 7.54941 4.27474 7.34113 4.06646C7.13285 3.85818 7.13285 3.52049 7.34113 3.31221L9.982 0.671346C10.1903 0.463067 10.528 0.463067 10.7362 0.671346L13.3771 3.31221C13.5854 3.52049 13.5854 3.85818 13.3771 4.06646Z" fill="#4D4D4D"/>
<path fill-rule="evenodd" clip-rule="evenodd" d="M10.3592 11.4851C10.0646 11.4851 9.82584 11.2463 9.82584 10.9517L9.82584 1.04847C9.82584 0.753922 10.0646 0.515141 10.3592 0.515141C10.6537 0.515142 10.8925 0.753922 10.8925 1.04847L10.8925 10.9517C10.8925 11.2463 10.6537 11.4851 10.3592 11.4851Z" fill="#4D4D4D"/>
</svg>